<?xml version="1.0" encoding="UTF-8" standalone="no"?>
<svg
   xmlns:dc="http://purl.org/dc/elements/1.1/"
   xmlns:cc="http://creativecommons.org/ns#"
   xmlns:rdf="http://www.w3.org/1999/02/22-rdf-syntax-ns#"
   xmlns:svg="http://www.w3.org/2000/svg"
   xmlns="http://www.w3.org/2000/svg"
   xmlns:sodipodi="http://sodipodi.sourceforge.net/DTD/sodipodi-0.dtd"
   xmlns:inkscape="http://www.inkscape.org/namespaces/inkscape"
   viewBox="0 0 669.31493 289.492"
   height="289.492"
   width="669.31494"
   xml:space="preserve"
   id="svg2"
   version="1.1"
   sodipodi:docname="LinkedGeodesy.svg"
   inkscape:version="0.92.1 r15371"
   inkscape:export-filename="D:\src\logo-linkedgeodesy\LinkedGeodesy.png"
   inkscape:export-xdpi="573.69458"
   inkscape:export-ydpi="573.69458"><sodipodi:namedview
     pagecolor="#ffffff"
     bordercolor="#666666"
     borderopacity="1"
     objecttolerance="10"
     gridtolerance="10"
     guidetolerance="10"
     inkscape:pageopacity="0"
     inkscape:pageshadow="2"
     inkscape:window-width="1920"
     inkscape:window-height="1028"
     id="namedview62"
     showgrid="false"
     inkscape:zoom="1.0012632"
     inkscape:cx="454.40578"
     inkscape:cy="99.17634"
     inkscape:window-x="-8"
     inkscape:window-y="-8"
     inkscape:window-maximized="1"
     inkscape:current-layer="svg2"
     fit-margin-top="0"
     fit-margin-left="0"
     fit-margin-right="0"
     fit-margin-bottom="0" /><metadata
     id="metadata8"><rdf:RDF><cc:Work
         rdf:about=""><dc:format>image/svg+xml</dc:format><dc:type
           rdf:resource="http://purl.org/dc/dcmitype/StillImage" /><dc:title></dc:title></cc:Work></rdf:RDF></metadata><defs
     id="defs6"><clipPath
       id="clipPath36"
       clipPathUnits="userSpaceOnUse"><path
         id="path34"
         d="M 0,2000 H 2000 V 0 H 0 Z"
         inkscape:connector-curvature="0" /></clipPath></defs><g
     transform="matrix(1.3333333,0,0,-1.3333333,-998.67598,1478.079)"
     id="g10"><g
       transform="translate(1003.3677,945.2979)"
       id="g14"><path
         id="path16"
         style="fill:#000000;fill-opacity:1;fill-rule:nonzero;stroke:none"
         d="M 0,0 0.001,0.002 -0.394,0.366 Z"
         inkscape:connector-curvature="0" /></g><g
       transform="translate(943.794,945.2979)"
       id="g18"><path
         id="path20"
         style="fill:#000000;fill-opacity:1;fill-rule:nonzero;stroke:none"
         d="M 0,0 0.002,0.002 -0.394,0.366 Z"
         inkscape:connector-curvature="0" /></g><g
       transform="translate(1031.7096,942.0921)"
       id="g22"><path
         id="path24"
         style="fill:#000000;fill-opacity:1;fill-rule:nonzero;stroke:none"
         d="M 0,0 0.002,0.002 -0.384,0.358 Z"
         inkscape:connector-curvature="0" /></g><g
       transform="translate(972.1368,942.0921)"
       id="g26"><path
         id="path28"
         style="fill:#000000;fill-opacity:1;fill-rule:nonzero;stroke:none"
         d="M 0,0 0.002,0.002 -0.38,0.354 Z"
         inkscape:connector-curvature="0" /></g><g
       id="g30"><g
         clip-path="url(#clipPath36)"
         id="g32"><g
           transform="translate(949.8257,1034.2456)"
           id="g38"><path
             id="path40"
             style="fill:#000000;fill-opacity:1;fill-rule:nonzero;stroke:none"
             d="M 0,0 C 2.549,0 4.616,2.066 4.616,4.616 4.616,7.165 2.549,9.231 0,9.231 -2.549,9.231 -4.616,7.165 -4.616,4.616 -4.616,2.066 -2.549,0 0,0"
             inkscape:connector-curvature="0" /></g><g
           transform="translate(906.5101,1043.4768)"
           id="g42"><path
             id="path44"
             style="fill:#000000;fill-opacity:1;fill-rule:nonzero;stroke:none"
             d="m 0,0 c -2.549,0 -4.616,-2.067 -4.616,-4.616 0,-2.549 2.067,-4.615 4.616,-4.615 2.549,0 4.616,2.066 4.616,4.615 C 4.616,-2.067 2.549,0 0,0"
             inkscape:connector-curvature="0" /></g><g
           transform="translate(924.0711,1018.5507)"
           id="g46"><path
             id="path48"
             style="fill:#000000;fill-opacity:1;fill-rule:nonzero;stroke:none"
             d="m 0,0 c 0.251,2.226 0.952,5.92 1.901,8.942 0.47,1.509 1.012,2.86 1.526,3.724 0.253,0.431 0.501,0.734 0.654,0.865 l 0.015,0.011 C 4.191,13.461 4.335,13.317 4.495,13.086 4.946,12.462 5.473,11.339 5.936,10.017 6.639,8.029 7.242,5.576 7.657,3.408 7.865,2.324 8.028,1.309 8.137,0.461 8.247,-0.384 8.301,-1.079 8.3,-1.446 8.299,-2.611 7.832,-3.653 7.069,-4.418 6.303,-5.181 5.262,-5.648 4.097,-5.649 2.931,-5.648 1.89,-5.181 1.125,-4.418 0.362,-3.653 -0.105,-2.611 -0.106,-1.446 -0.107,-1.15 -0.072,-0.632 0,0 m 4.097,-8.649 c 3.978,10e-4 7.202,3.224 7.203,7.203 -0.001,0.491 -0.046,1.081 -0.126,1.785 -0.281,2.449 -0.995,6.223 -2.018,9.5 C 8.64,11.479 8.058,12.986 7.349,14.192 6.99,14.795 6.602,15.331 6.1,15.779 5.848,16.001 5.562,16.202 5.227,16.355 4.893,16.507 4.503,16.606 4.097,16.605 3.631,16.606 3.191,16.477 2.826,16.287 2.138,15.923 1.666,15.398 1.244,14.812 0.518,13.779 -0.055,12.471 -0.577,10.999 -1.352,8.797 -1.974,6.242 -2.411,3.965 -2.63,2.827 -2.801,1.76 -2.92,0.84 -3.038,-0.083 -3.105,-0.844 -3.106,-1.446 -3.105,-5.425 0.118,-8.648 4.097,-8.649"
             inkscape:connector-curvature="0" /></g><g
           transform="translate(931.6349,1008.0074)"
           id="g50"><path
             id="path52"
             style="fill:#000000;fill-opacity:1;fill-rule:nonzero;stroke:none"
             d="m 0,0 c -0.949,-1.481 -1.237,-3.101 -0.902,-4.299 0.167,-0.598 0.478,-1.098 0.963,-1.409 1.455,-0.933 3.788,0.111 5.211,2.33 1.121,1.75 1.327,3.697 0.656,4.904 C 5.748,1.851 5.519,2.133 5.211,2.33 3.755,3.263 1.422,2.22 0,0"
             inkscape:connector-curvature="0" /></g><g
           transform="translate(924.6401,1002.2996)"
           id="g54"><path
             id="path56"
             style="fill:#000000;fill-opacity:1;fill-rule:nonzero;stroke:none"
             d="M 0,0 C 1.456,0.933 1.483,3.488 0.061,5.708 -1.361,7.927 -3.694,8.971 -5.15,8.038 -6.606,7.105 -6.633,4.55 -5.211,2.33 -3.789,0.111 -1.456,-0.933 0,0"
             inkscape:connector-curvature="0" /></g><g
           transform="translate(1140.639,967.6873)"
           id="g58"><path
             id="path60"
             style="fill:#000000;fill-opacity:1;fill-rule:nonzero;stroke:none"
             d="m 0,0 c -1.218,-3.387 -3.433,-7.208 -6.772,-10.223 -3.345,-3.016 -7.778,-5.26 -13.655,-5.612 -1.715,-0.101 -3.363,-0.148 -4.947,-0.149 -11.035,0.006 -18.988,2.315 -25.705,5.436 -6.715,3.121 -12.194,7.103 -18.157,10.454 -3.827,2.15 -7.662,3.011 -11.206,3.107 0,0.103 0.003,0.21 0.003,0.312 -0.001,7.238 -0.614,12.6 -0.619,12.638 l -1.49,-0.171 -1.49,-0.17 c 0,0 0.008,-0.074 0.024,-0.228 0.113,-1.078 0.575,-5.883 0.575,-12.069 0,-0.132 -0.004,-0.274 -0.004,-0.408 -0.002,-0.49 -0.007,-0.99 -0.015,-1.497 -0.008,-0.499 -0.021,-1.006 -0.036,-1.518 -0.158,-5.49 -0.728,-11.632 -2.159,-17.061 -0.866,-3.293 -2.046,-6.313 -3.59,-8.751 -1.547,-2.443 -3.431,-4.288 -5.744,-5.38 -3.023,-1.424 -5.831,-2.181 -8.41,-2.496 0.132,1.893 0.684,3.284 1.221,4.239 0.307,0.545 0.611,0.944 0.827,1.197 0.107,0.126 0.193,0.215 0.246,0.268 l 0.053,0.051 0.005,0.005 -0.55,0.614 0.54,-0.623 -0.983,1.133 -0.984,1.132 v 0 c -0.096,-0.084 -0.936,-0.832 -1.767,-2.303 -0.764,-1.35 -1.502,-3.332 -1.615,-5.891 -2.218,0.012 -4.236,0.339 -6.017,0.831 0.051,1.792 0.857,3.683 1.726,5.115 0.448,0.744 0.901,1.363 1.236,1.789 0.168,0.213 0.306,0.378 0.399,0.486 l 0.105,0.12 0.023,0.026 0.003,0.002 -1.099,1.021 -1.098,1.022 v 0 c -0.046,-0.051 -1.082,-1.166 -2.139,-2.919 -0.886,-1.483 -1.807,-3.431 -2.08,-5.639 -0.654,0.277 -1.269,0.565 -1.822,0.855 -1.167,0.613 -2.083,1.219 -2.747,1.701 -0.016,0.011 -0.033,0.023 -0.049,0.035 6.139,7.025 8.657,14.537 9.121,21.557 0.034,0.513 0.057,1.022 0.07,1.529 0.009,0.338 0.02,0.677 0.019,1.012 0,0.17 -0.01,0.338 -0.012,0.508 -0.042,3.111 -0.438,6.097 -1.045,8.886 -1.262,5.797 -3.403,10.736 -5.038,14.185 -0.125,0.263 -0.25,0.525 -0.368,0.771 l -1.351,-0.653 -1.35,-0.652 v 0 c 2.4,-4.959 6.151,-13.498 6.162,-22.978 -7.059,-0.982 -15.949,-1.811 -25.677,-1.876 -0.357,-0.002 -0.711,-0.008 -1.07,-0.008 0.36,3.694 0.489,7.318 0.489,10.563 0,1.196 -0.018,2.333 -0.046,3.411 -0.141,5.446 -0.568,9.195 -0.572,9.227 l -1.49,-0.171 -0.629,-0.072 -0.861,-0.098 c 0,0 0.008,-0.074 0.024,-0.228 0.094,-0.891 0.425,-4.336 0.536,-8.998 0.024,-0.975 0.038,-2 0.038,-3.071 0.002,-3.247 -0.133,-6.877 -0.502,-10.541 -0.05,-0.498 -0.108,-0.997 -0.167,-1.495 -0.059,-0.501 -0.125,-0.998 -0.194,-1.497 -0.246,-1.767 -0.556,-3.515 -0.94,-5.214 -0.132,-0.583 -0.26,-1.168 -0.41,-1.737 -0.866,-3.293 -2.046,-6.313 -3.59,-8.751 -0.003,-0.004 -0.006,-0.008 -0.008,-0.013 -0.286,-0.45 -0.587,-0.873 -0.897,-1.282 -0.294,-0.388 -0.596,-0.762 -0.912,-1.111 -1.151,-1.27 -2.451,-2.277 -3.927,-2.974 -3.023,-1.424 -5.831,-2.181 -8.41,-2.496 0.132,1.893 0.684,3.284 1.221,4.239 0.307,0.545 0.611,0.944 0.826,1.197 0.108,0.126 0.194,0.215 0.247,0.268 l 0.053,0.051 0.005,0.005 -0.55,0.613 0.54,-0.622 -0.984,1.133 -0.983,1.132 v 0 c -0.096,-0.084 -0.937,-0.832 -1.767,-2.303 -0.764,-1.35 -1.502,-3.332 -1.615,-5.891 -2.219,0.012 -4.236,0.339 -6.017,0.831 0.05,1.792 0.856,3.683 1.726,5.115 0.448,0.744 0.901,1.363 1.236,1.789 0.167,0.213 0.306,0.378 0.399,0.486 l 0.105,0.12 0.023,0.026 0.003,0.002 -1.099,1.021 -1.099,1.022 v 0 c -0.046,-0.051 -1.081,-1.166 -2.138,-2.919 -0.886,-1.483 -1.807,-3.431 -2.08,-5.639 -0.654,0.277 -1.269,0.565 -1.822,0.855 -1.167,0.613 -2.083,1.219 -2.747,1.701 -0.016,0.011 -0.034,0.023 -0.049,0.035 6.269,7.174 8.761,14.854 9.148,22.001 0.027,0.509 0.044,1.014 0.051,1.517 0.003,0.193 0.011,0.388 0.011,0.58 0,0.32 -0.016,0.634 -0.023,0.952 -0.073,2.951 -0.456,5.787 -1.034,8.442 -1.262,5.797 -3.403,10.736 -5.039,14.185 -0.124,0.263 -0.249,0.525 -0.367,0.771 l -1.351,-0.653 -1.351,-0.652 v 0 c 2.271,-4.691 5.747,-12.584 6.127,-21.447 -3.819,0.874 -7.603,1.939 -11.299,3.233 -5.175,1.812 -10.172,4.068 -14.874,6.836 -1.219,0.718 -2.418,1.472 -3.595,2.261 -5.789,3.882 -11.032,8.649 -15.475,14.468 1.853,-0.417 3.829,-0.772 5.946,-1.042 l 0.19,-0.024 0.189,0.024 c 8.789,1.119 15.247,3.649 19.847,6.39 4.602,2.743 7.336,5.68 8.735,7.62 0.28,0.394 0.819,0.854 1.583,1.272 1.142,0.633 2.753,1.167 4.518,1.52 1.766,0.356 3.691,0.54 5.486,0.54 1.772,0.001 3.426,-0.184 4.639,-0.519 1.518,-0.414 2.73,-0.635 3.801,-0.638 0.689,0 1.334,0.095 1.933,0.35 0.447,0.189 0.857,0.476 1.177,0.828 0.485,0.529 0.751,1.156 0.907,1.768 0.156,0.617 0.216,1.245 0.246,1.909 l 0.002,0.014 c 0.006,0.106 0.151,0.573 0.441,1.144 0.502,1.019 1.397,2.438 2.485,3.964 1.632,2.294 3.704,4.86 5.606,6.958 0.95,1.048 1.858,1.981 2.635,2.698 0.765,0.715 1.442,1.22 1.731,1.361 0.987,0.509 1.743,1.118 2.249,1.867 0.511,0.746 0.704,1.599 0.697,2.332 -0.002,0.707 -0.145,1.323 -0.285,1.867 -0.143,0.542 -0.287,1.017 -0.363,1.403 -0.036,0.179 -0.093,0.608 -0.133,1.176 -0.042,0.572 -0.071,1.298 -0.071,2.14 -0.008,4.287 0.774,11.546 4.216,17.533 l 0.05,0.087 0.037,0.093 c 0.384,0.944 0.621,1.877 0.622,2.823 0.002,0.451 -0.064,0.903 -0.185,1.342 14.134,-0.82 29.922,-3.985 43.945,-11.078 15.027,-7.607 28.023,-19.642 35.084,-38.237 5.422,-14.29 13.353,-25.939 21.743,-34.063 4.197,-4.062 8.509,-7.244 12.708,-9.429 4.2,-2.181 8.293,-3.376 12.072,-3.379 2.62,-0.002 5.096,0.589 7.253,1.844 2.159,1.253 3.972,3.162 5.315,5.662 C -0.681,4.724 0.09,5.83 0.669,6.455 0.821,6.621 0.956,6.747 1.072,6.846 1.073,6.84 1.075,6.838 1.076,6.831 1.135,6.559 1.174,6.176 1.174,5.716 1.177,4.319 0.814,2.251 0,0 m -129.387,-24.82 -0.551,0.613 0.541,-0.622 -1.967,2.265 h -0.001 c -0.096,-0.085 -0.936,-0.832 -1.767,-2.304 -0.764,-1.35 -1.502,-3.331 -1.614,-5.891 -2.219,0.013 -4.236,0.34 -6.018,0.832 0.051,1.791 0.857,3.682 1.727,5.114 0.448,0.744 0.9,1.364 1.236,1.79 0.167,0.213 0.305,0.378 0.399,0.486 l 0.105,0.119 0.023,0.026 0.002,0.003 -2.197,2.042 v 0 c -0.046,-0.051 -1.082,-1.165 -2.138,-2.919 -0.886,-1.482 -1.807,-3.43 -2.08,-5.638 -0.654,0.276 -1.269,0.564 -1.822,0.854 -0.292,0.154 -0.563,0.306 -0.825,0.457 0.017,0.027 0.036,0.052 0.053,0.079 2.034,3.224 3.406,7.104 4.348,11.204 0.869,2.03 1.511,4.061 1.964,6.075 9.856,0.036 18.868,0.851 26.086,1.834 -0.529,-6.212 -2.785,-12.709 -8.199,-18.985 -0.403,-0.255 -0.815,-0.494 -1.248,-0.699 -3.022,-1.424 -5.83,-2.18 -8.41,-2.495 0.133,1.893 0.685,3.283 1.221,4.239 0.308,0.545 0.611,0.944 0.827,1.196 0.108,0.126 0.194,0.216 0.247,0.268 l 0.053,0.052 z m -59.573,0 -0.551,0.613 0.54,-0.622 -1.967,2.265 v 0 c -0.096,-0.085 -0.936,-0.832 -1.767,-2.304 -0.764,-1.35 -1.502,-3.331 -1.615,-5.891 -2.218,0.013 -4.236,0.34 -6.017,0.832 0.051,1.791 0.857,3.682 1.727,5.114 0.447,0.744 0.9,1.364 1.235,1.79 0.168,0.213 0.306,0.378 0.4,0.486 l 0.104,0.119 0.024,0.026 0.002,0.003 -2.197,2.042 v 0 c -0.046,-0.051 -1.082,-1.165 -2.138,-2.918 -0.886,-1.483 -1.808,-3.431 -2.08,-5.639 -0.654,0.276 -1.27,0.564 -1.823,0.854 -1.194,0.628 -2.129,1.249 -2.796,1.736 6.887,7.881 9.223,16.375 9.21,24.098 -10e-4,1.593 -0.107,3.149 -0.279,4.669 4.263,-2.335 8.724,-4.277 13.294,-5.875 4.031,-1.409 8.149,-2.549 12.295,-3.472 -0.28,-6.663 -2.443,-13.707 -8.296,-20.492 -0.403,-0.255 -0.815,-0.494 -1.248,-0.699 -3.022,-1.424 -5.83,-2.18 -8.41,-2.495 0.132,1.893 0.685,3.283 1.221,4.239 0.308,0.545 0.611,0.944 0.827,1.196 0.108,0.126 0.193,0.216 0.246,0.268 l 0.053,0.052 z m -49.849,62.517 c -0.652,0.899 -1.547,1.579 -2.569,2.146 -1.536,0.843 -3.393,1.432 -5.374,1.833 -1.98,0.398 -4.08,0.598 -6.077,0.599 -1.977,-0.002 -3.846,-0.193 -5.433,-0.626 -1.372,-0.379 -2.377,-0.534 -3.008,-0.531 -0.408,-0.001 -0.645,0.061 -0.754,0.109 l -0.144,0.096 c -0.047,0.05 -0.134,0.179 -0.212,0.483 -0.077,0.298 -0.132,0.745 -0.156,1.301 -0.019,0.389 -0.102,0.725 -0.211,1.068 -0.208,0.637 -0.527,1.299 -0.934,2.035 -1.42,2.551 -3.964,5.966 -6.533,8.998 -1.285,1.513 -2.57,2.92 -3.729,4.058 -0.58,0.57 -1.128,1.072 -1.64,1.494 -0.515,0.421 -0.981,0.761 -1.475,1.018 -0.683,0.353 -0.994,0.666 -1.137,0.879 -0.138,0.216 -0.177,0.364 -0.183,0.654 -0.002,0.272 0.067,0.653 0.187,1.109 0.118,0.456 0.283,0.981 0.403,1.578 0.076,0.39 0.135,0.888 0.183,1.543 0.047,0.652 0.078,1.445 0.078,2.356 -0.008,4.593 -0.77,12.203 -4.544,18.898 -0.269,0.673 -0.382,1.223 -0.381,1.638 0.003,0.366 0.071,0.632 0.215,0.905 0.147,0.271 0.388,0.562 0.808,0.878 0.308,0.234 0.639,0.541 1.065,0.978 1.466,1.512 3.887,4.499 5.982,8.657 2.089,4.154 3.84,9.48 3.841,15.583 0,1.865 -0.164,3.8 -0.531,5.791 l -0.006,0.031 -0.007,0.031 c -0.147,0.64 -0.206,1.148 -0.205,1.515 0,0.354 0.053,0.57 0.098,0.68 l 0.09,0.145 c 0.041,0.041 0.117,0.101 0.329,0.163 0.207,0.06 0.535,0.103 0.954,0.103 1.148,0.006 2.901,-0.323 4.865,-0.682 1.972,-0.355 4.181,-0.729 6.431,-0.73 1.354,0 2.727,0.137 4.069,0.517 1.732,0.49 3.257,1.159 4.61,1.929 -0.001,-0.104 -0.003,-0.201 -0.003,-0.312 0,-1.928 0.166,-4.876 0.504,-8.344 0.507,-5.2 1.398,-11.534 2.721,-17.135 0.662,-2.802 1.431,-5.419 2.333,-7.642 0.912,-2.223 1.921,-4.061 3.272,-5.334 1.375,-1.291 3.101,-1.896 4.792,-1.886 1.665,0.003 3.296,0.532 4.811,1.369 2.271,1.262 4.317,3.231 5.845,5.518 1.519,2.289 2.535,4.909 2.542,7.553 10e-4,1.001 -0.151,2.005 -0.492,2.969 l -0.077,0.218 -0.139,0.185 c -10e-4,0.001 -0.207,0.276 -0.584,0.781 -1.318,1.769 -4.69,6.337 -8.288,11.519 -3.597,5.177 -7.427,10.992 -9.618,15.156 -0.287,0.545 -0.552,1.025 -0.808,1.475 0.371,0.481 0.714,0.95 1.021,1.386 0.712,1.013 1.275,1.878 1.68,2.389 0.307,0.389 0.645,0.646 1.016,0.82 0.37,0.172 0.78,0.26 1.223,0.26 1.001,0.006 2.171,-0.478 3.061,-1.397 0.691,-0.697 1.755,-2.111 3.63,-3.27 1.882,-1.171 4.561,-2.048 8.438,-2.043 2.785,0.001 6.209,0.444 10.493,1.517 4.283,-1.074 7.708,-1.516 10.492,-1.517 3.878,-0.006 6.556,0.872 8.439,2.043 1.875,1.159 2.939,2.573 3.63,3.27 0.889,0.919 2.06,1.403 3.061,1.397 0.443,0 0.852,-0.088 1.223,-0.26 0.371,-0.174 0.709,-0.431 1.016,-0.82 0.405,-0.511 0.968,-1.376 1.679,-2.389 0.306,-0.435 0.652,-0.902 1.021,-1.382 -0.255,-0.449 -0.522,-0.937 -0.808,-1.479 -2.505,-4.762 -7.146,-11.668 -11.14,-17.333 -1.998,-2.836 -3.837,-5.368 -5.175,-7.191 -0.67,-0.912 -1.214,-1.646 -1.59,-2.151 -0.377,-0.505 -0.584,-0.78 -0.584,-0.78 l -0.139,-0.185 -0.077,-0.218 c -0.341,-0.965 -0.493,-1.969 -0.493,-2.97 0.001,-1.762 0.461,-3.515 1.21,-5.165 1.128,-2.473 2.908,-4.73 4.992,-6.423 2.087,-1.68 4.495,-2.839 6.997,-2.852 1.691,-0.01 3.417,0.595 4.791,1.886 0.906,0.847 1.645,1.95 2.319,3.246 1.171,2.267 2.129,5.154 2.947,8.345 1.221,4.784 2.107,10.246 2.693,15.139 0.586,4.897 0.871,9.199 0.872,11.724 0,0.111 -0.003,0.207 -0.004,0.311 1.353,-0.769 2.88,-1.437 4.611,-1.927 1.341,-0.38 2.715,-0.517 4.069,-0.517 2.249,0.001 4.458,0.375 6.43,0.73 1.964,0.359 3.717,0.688 4.866,0.682 0.372,0 0.673,-0.033 0.88,-0.084 0.157,-0.037 0.258,-0.082 0.319,-0.118 0.089,-0.059 0.103,-0.073 0.156,-0.172 0.049,-0.098 0.116,-0.318 0.115,-0.717 0.001,-0.367 -0.058,-0.875 -0.205,-1.515 l -0.006,-0.03 -0.006,-0.032 c -0.368,-1.991 -0.532,-3.926 -0.532,-5.791 0.002,-6.976 2.287,-12.932 4.755,-17.292 1.236,-2.181 2.52,-3.968 3.608,-5.298 0.544,-0.665 1.039,-1.217 1.46,-1.65 0.316,-0.324 0.571,-0.559 0.811,-0.763 0.085,-0.072 0.174,-0.154 0.254,-0.215 0.42,-0.316 0.662,-0.607 0.808,-0.878 0.144,-0.273 0.212,-0.539 0.215,-0.905 0.001,-0.415 -0.112,-0.966 -0.381,-1.639 -3.774,-6.695 -4.535,-14.304 -4.544,-18.897 0,-0.911 0.031,-1.704 0.078,-2.356 0.048,-0.655 0.107,-1.153 0.184,-1.543 0.119,-0.597 0.284,-1.122 0.402,-1.578 0.121,-0.456 0.19,-0.837 0.188,-1.109 -0.007,-0.29 -0.045,-0.438 -0.184,-0.654 -0.142,-0.213 -0.453,-0.526 -1.137,-0.879 -0.598,-0.313 -1.168,-0.75 -1.816,-1.307 -1.121,-0.971 -2.424,-2.309 -3.783,-3.832 -2.035,-2.284 -4.176,-4.973 -5.846,-7.379 -0.836,-1.206 -1.554,-2.337 -2.09,-3.34 -0.268,-0.502 -0.491,-0.972 -0.662,-1.424 -0.169,-0.455 -0.297,-0.881 -0.325,-1.389 -0.021,-0.494 -0.066,-0.902 -0.131,-1.196 -0.048,-0.222 -0.106,-0.375 -0.155,-0.467 -0.08,-0.137 -0.094,-0.144 -0.188,-0.2 -0.094,-0.049 -0.331,-0.127 -0.792,-0.126 -0.63,-0.003 -1.636,0.153 -3.008,0.531 -1.586,0.433 -3.455,0.624 -5.432,0.626 -2.664,-0.002 -5.508,-0.355 -8.01,-1.065 -1.251,-0.357 -2.417,-0.804 -3.442,-1.367 -1.022,-0.566 -1.916,-1.247 -2.569,-2.147 -1.157,-1.606 -3.6,-4.273 -7.836,-6.795 -4.206,-2.504 -10.193,-4.879 -18.501,-5.963 -3.128,0.408 -5.927,0.998 -8.424,1.71 -4.137,1.181 -7.454,2.691 -10.077,4.253 -4.236,2.522 -6.679,5.189 -7.837,6.796 m -7.786,95.195 c 0.005,0.064 0.011,0.12 0.017,0.181 0.396,-0.588 0.884,-1.416 1.454,-2.473 0.081,-0.152 0.16,-0.294 0.245,-0.456 2.647,-5.02 7.314,-11.943 11.342,-17.663 3.498,-4.965 6.502,-8.994 7.233,-9.97 0.178,-0.564 0.277,-1.16 0.277,-1.797 0.002,-1.228 -0.332,-2.586 -0.941,-3.923 -0.908,-2.007 -2.434,-3.949 -4.149,-5.333 -1.713,-1.398 -3.598,-2.196 -5.108,-2.184 -1.033,0.01 -1.901,0.308 -2.749,1.083 -0.531,0.489 -1.129,1.325 -1.698,2.428 -1.002,1.93 -1.924,4.651 -2.704,7.709 -1.173,4.592 -2.047,9.955 -2.621,14.753 -0.575,4.794 -0.852,9.05 -0.85,11.368 0,0.428 0.009,0.788 0.026,1.058 0.028,0.465 0.049,0.938 0.067,1.41 0.051,1.38 0.073,2.745 0.159,3.809 m 68.232,0.182 c 0.054,-0.608 0.087,-1.34 0.113,-2.119 0.021,-0.605 0.041,-1.239 0.064,-1.877 0.018,-0.469 0.036,-0.941 0.065,-1.405 0.016,-0.269 0.026,-0.63 0.026,-1.059 0,-1.762 -0.159,-4.66 -0.49,-8.053 -0.496,-5.093 -1.378,-11.332 -2.655,-16.735 -0.637,-2.7 -1.375,-5.192 -2.193,-7.204 -0.808,-2.011 -1.732,-3.533 -2.536,-4.265 -0.847,-0.775 -1.715,-1.073 -2.748,-1.083 -1.009,-0.002 -2.178,0.338 -3.358,0.994 -1.771,0.975 -3.533,2.644 -4.802,4.556 -1.277,1.909 -2.046,4.049 -2.039,5.89 0,0.637 0.099,1.233 0.277,1.797 0.731,0.976 3.735,5.005 7.234,9.97 4.028,5.72 8.695,12.643 11.342,17.663 0.085,0.162 0.16,0.296 0.242,0.448 0.57,1.059 1.063,1.894 1.458,2.482 M 3.703,8.425 C 3.521,8.828 3.263,9.228 2.858,9.556 2.46,9.885 1.892,10.094 1.352,10.086 0.745,10.083 0.22,9.876 -0.238,9.597 -0.926,9.17 -1.529,8.558 -2.174,7.729 -2.814,6.899 -3.483,5.844 -4.198,4.517 -5.32,2.438 -6.73,0.988 -8.379,0.027 c -1.65,-0.958 -3.565,-1.436 -5.745,-1.438 -3.134,-0.003 -6.801,1.018 -10.688,3.041 -5.832,3.029 -12.135,8.29 -17.943,15.405 -5.812,7.113 -11.137,16.074 -15.087,26.489 -7.337,19.366 -20.994,32.004 -36.535,39.85 -15.368,7.765 -32.579,10.916 -47.649,11.516 -0.116,0.107 -0.25,0.237 -0.401,0.394 -1.248,1.283 -3.527,4.081 -5.453,7.916 -1.932,3.839 -3.523,8.713 -3.522,14.234 0,1.689 0.149,3.44 0.482,5.246 l -0.002,10e-4 c 0.173,0.773 0.269,1.471 0.269,2.121 0,0.64 -0.091,1.246 -0.318,1.808 -0.17,0.42 -0.421,0.809 -0.736,1.126 -0.473,0.48 -1.061,0.776 -1.64,0.939 -0.583,0.165 -1.172,0.217 -1.776,0.218 -1.637,-0.007 -3.451,-0.383 -5.398,-0.73 -1.939,-0.352 -3.986,-0.684 -5.898,-0.682 -1.152,-10e-4 -2.249,0.118 -3.25,0.403 -2.24,0.638 -4.052,1.598 -5.567,2.699 -0.028,0.883 -0.059,1.756 -0.121,2.547 -0.069,0.817 -0.154,1.54 -0.373,2.223 -0.116,0.342 -0.259,0.692 -0.569,1.057 -0.156,0.179 -0.364,0.361 -0.631,0.496 -0.265,0.137 -0.586,0.214 -0.887,0.212 -0.333,0 -0.629,-0.082 -0.874,-0.191 -0.429,-0.194 -0.736,-0.453 -1.036,-0.751 -0.145,-0.148 -0.289,-0.313 -0.432,-0.489 -0.107,0.149 -0.217,0.298 -0.318,0.442 -0.679,0.962 -1.227,1.819 -1.775,2.518 -0.585,0.746 -1.313,1.315 -2.107,1.684 -0.793,0.37 -1.646,0.542 -2.49,0.541 -1.917,-0.005 -3.79,-0.851 -5.21,-2.304 -0.897,-0.933 -1.667,-1.95 -3.06,-2.812 -1.386,-0.851 -3.41,-1.588 -6.86,-1.594 -2.54,0 -5.839,0.415 -10.12,1.514 l -0.372,0.095 -0.373,-0.095 c -4.281,-1.098 -7.579,-1.514 -10.12,-1.514 -3.45,0.006 -5.474,0.743 -6.86,1.594 -1.393,0.862 -2.162,1.879 -3.059,2.812 -1.42,1.453 -3.294,2.299 -5.21,2.304 -0.844,10e-4 -1.698,-0.171 -2.491,-0.541 -0.794,-0.369 -1.521,-0.938 -2.106,-1.684 -0.548,-0.699 -1.096,-1.556 -1.775,-2.518 -0.101,-0.143 -0.217,-0.296 -0.324,-0.443 -0.266,0.325 -0.529,0.613 -0.826,0.85 -0.187,0.147 -0.391,0.282 -0.637,0.391 -0.245,0.109 -0.541,0.191 -0.873,0.191 -0.301,0.002 -0.622,-0.075 -0.887,-0.212 -0.506,-0.262 -0.778,-0.645 -0.954,-0.967 -0.3,-0.577 -0.405,-1.121 -0.502,-1.733 -0.133,-0.91 -0.181,-1.957 -0.22,-3.06 -0.007,-0.188 -0.012,-0.379 -0.018,-0.569 -1.515,-1.099 -3.328,-2.056 -5.567,-2.693 -1.001,-0.284 -2.099,-0.403 -3.25,-0.403 -1.913,-0.002 -3.959,0.33 -5.898,0.682 -1.947,0.347 -3.761,0.723 -5.398,0.73 -0.537,-0.001 -1.062,-0.043 -1.582,-0.167 -0.389,-0.094 -0.778,-0.236 -1.146,-0.454 -0.554,-0.322 -1.043,-0.839 -1.333,-1.455 -0.295,-0.616 -0.41,-1.296 -0.41,-2.015 0.001,-0.65 0.096,-1.348 0.269,-2.121 l -10e-4,-10e-4 c 0.333,-1.806 0.481,-3.557 0.481,-5.246 0.002,-6.309 -2.078,-11.777 -4.365,-15.813 -1.142,-2.017 -2.332,-3.671 -3.319,-4.878 -0.494,-0.603 -0.936,-1.095 -1.291,-1.46 -0.349,-0.361 -0.632,-0.609 -0.714,-0.668 -0.692,-0.519 -1.262,-1.135 -1.649,-1.856 -0.389,-0.718 -0.575,-1.526 -0.573,-2.326 0.002,-0.946 0.239,-1.879 0.622,-2.823 l 0.038,-0.093 0.05,-0.087 c 3.442,-5.987 4.223,-13.246 4.215,-17.533 0,-0.842 -0.029,-1.568 -0.07,-2.14 -0.04,-0.568 -0.097,-0.997 -0.134,-1.176 -0.075,-0.386 -0.22,-0.861 -0.362,-1.403 -0.14,-0.544 -0.283,-1.16 -0.285,-1.867 -0.007,-0.732 0.186,-1.586 0.696,-2.332 0.507,-0.75 1.262,-1.358 2.249,-1.867 0.219,-0.108 0.687,-0.437 1.229,-0.91 0.961,-0.83 2.207,-2.101 3.506,-3.559 1.952,-2.189 4.039,-4.813 5.621,-7.094 0.791,-1.139 1.457,-2.195 1.908,-3.042 0.226,-0.422 0.397,-0.792 0.503,-1.072 0.053,-0.14 0.089,-0.257 0.11,-0.339 l 0.02,-0.096 0.003,-0.026 c 0.027,-0.591 0.078,-1.153 0.198,-1.704 0.09,-0.412 0.221,-0.822 0.429,-1.219 0.304,-0.596 0.827,-1.154 1.483,-1.48 0.656,-0.332 1.38,-0.453 2.153,-0.453 1.071,0.003 2.283,0.224 3.802,0.638 1.213,0.335 2.866,0.52 4.639,0.519 2.392,0.001 5.017,-0.33 7.187,-0.95 1.085,-0.309 2.055,-0.69 2.816,-1.11 0.764,-0.418 1.304,-0.878 1.584,-1.272 1.398,-1.94 4.133,-4.877 8.735,-7.62 2.512,-1.497 5.601,-2.921 9.299,-4.097 5.701,-8.43 12.913,-14.915 20.968,-19.854 0.356,-2.12 0.573,-4.326 0.571,-6.588 -0.013,-7.508 -2.282,-15.573 -9.477,-23.248 l -1.025,-1.09 1.087,-1.028 c 0.073,-0.067 1.698,-1.594 4.606,-3.123 2.905,-1.527 7.11,-3.058 12.289,-3.058 3.546,-0.002 7.542,0.739 11.83,2.641 0.642,-0.541 2.081,-1.662 4.224,-2.789 2.905,-1.527 7.11,-3.057 12.288,-3.058 3.75,-10e-4 7.998,0.81 12.566,2.966 2.006,0.945 3.704,2.327 5.145,3.991 0.383,-0.228 0.787,-0.46 1.231,-0.693 2.905,-1.527 7.111,-3.058 12.289,-3.058 3.546,-0.002 7.543,0.739 11.83,2.641 0.642,-0.541 2.081,-1.662 4.224,-2.789 2.905,-1.527 7.11,-3.057 12.288,-3.058 3.75,-10e-4 7.998,0.81 12.567,2.966 2.941,1.386 5.235,3.697 6.999,6.489 2.649,4.197 4.181,9.505 5.093,14.965 0.706,4.248 1.022,8.586 1.129,12.563 3.106,-0.092 6.412,-0.835 9.782,-2.724 5.754,-3.223 11.328,-7.281 18.359,-10.558 7.03,-3.276 15.517,-5.721 26.971,-5.715 1.645,0 3.351,0.049 5.124,0.154 4.375,0.255 8.13,1.483 11.257,3.291 4.697,2.715 7.974,6.701 10.083,10.635 1.055,1.97 1.82,3.931 2.326,5.742 C 3.922,2.652 4.172,4.308 4.174,5.716 4.168,6.73 4.058,7.614 3.703,8.425"
             inkscape:connector-curvature="0" /></g><g
           transform="translate(1009.0061,1053.1981)"
           id="g62"><path
             id="path64"
             style="fill:#000000;fill-opacity:1;fill-rule:nonzero;stroke:none"
             d="M 0,0 0.082,0.104 C 0.161,0.177 0.349,0.293 0.665,0.38 0.978,0.468 1.408,0.526 1.914,0.526 3.17,0.529 4.877,0.171 6.606,-0.588 c 1.577,-0.686 2.899,-1.581 3.765,-2.436 0.434,-0.426 0.751,-0.84 0.939,-1.18 0.191,-0.341 0.241,-0.595 0.238,-0.708 l -0.02,-0.12 -0.081,-0.102 C 11.368,-5.207 11.18,-5.323 10.864,-5.41 10.55,-5.498 10.121,-5.556 9.614,-5.556 8.358,-5.559 6.651,-5.201 4.923,-4.443 c -1.577,0.687 -2.899,1.582 -3.766,2.437 -0.433,0.426 -0.751,0.84 -0.938,1.18 -0.191,0.341 -0.241,0.595 -0.239,0.709 z m 0.021,-4.998 c 1.041,-0.827 2.292,-1.578 3.701,-2.194 2.065,-0.898 4.104,-1.36 5.892,-1.364 0.966,0.003 1.867,0.133 2.687,0.475 0.409,0.172 0.798,0.401 1.143,0.708 0.344,0.306 0.64,0.695 0.833,1.141 l -1.374,0.6 1.375,-0.599 c 0.185,0.423 0.271,0.879 0.27,1.319 -0.002,0.785 -0.251,1.504 -0.615,2.163 -0.553,0.99 -1.387,1.887 -2.426,2.717 C 10.467,0.795 9.215,1.546 7.806,2.162 5.741,3.06 3.702,3.522 1.914,3.526 0.948,3.523 0.047,3.393 -0.772,3.051 -1.181,2.879 -1.571,2.65 -1.916,2.343 -2.26,2.037 -2.555,1.648 -2.749,1.202 -2.935,0.778 -3.021,0.321 -3.02,-0.117 c 0.003,-0.785 0.251,-1.505 0.615,-2.164 0.554,-0.99 1.387,-1.887 2.426,-2.717"
             inkscape:connector-curvature="0" /></g><g
           transform="translate(1038.764,1037.0358)"
           id="g66"><path
             id="path68"
             style="fill:#000000;fill-opacity:1;fill-rule:nonzero;stroke:none"
             d="m 0,0 c -0.346,-0.787 -0.93,-1.408 -1.726,-1.862 -0.794,-0.45 -1.801,-0.712 -2.901,-0.712 -0.984,0 -2.039,0.209 -3.071,0.66 -1.314,0.573 -2.366,1.441 -3.074,2.413 -0.711,0.973 -1.071,2.037 -1.069,3.012 10e-4,0.529 0.101,1.035 0.313,1.521 0.346,0.788 0.93,1.409 1.726,1.863 0.795,0.45 1.801,0.712 2.901,0.712 0.985,0 2.039,-0.209 3.071,-0.66 C -2.515,6.374 -1.464,5.506 -0.755,4.534 -0.045,3.561 0.315,2.497 0.313,1.522 0.313,0.993 0.212,0.487 0,0 m -2.629,9.697 c -1.407,0.614 -2.865,0.91 -4.272,0.91 -1.57,-10e-4 -3.08,-0.368 -4.378,-1.101 -1.295,-0.73 -2.377,-1.846 -2.998,-3.273 -0.383,-0.876 -0.564,-1.804 -0.564,-2.722 0.002,-1.704 0.611,-3.363 1.646,-4.781 1.036,-1.419 2.506,-2.611 4.297,-3.394 1.406,-0.613 2.865,-0.909 4.271,-0.91 1.57,10e-4 3.081,0.368 4.378,1.101 1.295,0.73 2.377,1.846 2.998,3.273 L 1.375,-0.6 2.75,-1.2 C 3.132,-0.324 3.314,0.604 3.313,1.522 3.312,3.226 2.702,4.885 1.668,6.303 0.631,7.722 -0.839,8.914 -2.629,9.697"
             inkscape:connector-curvature="0" /></g><g
           transform="translate(1020.5339,1034.1393)"
           id="g70"><path
             id="path72"
             style="fill:#000000;fill-opacity:1;fill-rule:nonzero;stroke:none"
             d="m 0,0 c -0.1,-0.222 -0.29,-0.439 -0.739,-0.65 -0.441,-0.204 -1.117,-0.347 -1.932,-0.345 -1.207,-0.002 -2.705,0.304 -4.206,0.961 -1.509,0.657 -2.756,1.552 -3.575,2.442 -0.41,0.444 -0.712,0.884 -0.898,1.27 -0.188,0.388 -0.258,0.714 -0.257,0.95 10e-4,0.163 0.029,0.286 0.079,0.404 0.101,0.224 0.29,0.441 0.74,0.652 0.441,0.204 1.116,0.347 1.932,0.345 1.207,0.002 2.705,-0.304 4.206,-0.961 1.509,-0.657 2.756,-1.552 3.575,-2.443 0.41,-0.443 0.712,-0.883 0.898,-1.27 C 0.011,0.968 0.08,0.642 0.079,0.406 0.079,0.243 0.051,0.12 0,0 m 0.188,5.566 c -1.015,0.871 -2.244,1.642 -3.638,2.251 -1.851,0.806 -3.712,1.21 -5.406,1.212 -1.145,-0.002 -2.221,-0.183 -3.176,-0.615 -0.948,-0.426 -1.801,-1.157 -2.245,-2.181 -0.225,-0.514 -0.33,-1.066 -0.33,-1.605 10e-4,-0.791 0.215,-1.549 0.556,-2.256 0.516,-1.061 1.322,-2.03 2.336,-2.904 1.015,-0.871 2.244,-1.642 3.638,-2.251 1.851,-0.806 3.712,-1.21 5.406,-1.212 1.145,0.002 2.221,0.183 3.176,0.615 0.947,0.426 1.8,1.156 2.245,2.18 L 1.375,-0.6 2.75,-1.199 C 2.975,-0.685 3.08,-0.133 3.079,0.406 3.078,1.197 2.865,1.955 2.524,2.662 2.008,3.723 1.202,4.692 0.188,5.566"
             inkscape:connector-curvature="0" /></g><g
           transform="translate(762.78,895.1049)"
           id="g74"><path
             id="path76"
             style="fill:#000000;fill-opacity:1;fill-rule:nonzero;stroke:none"
             d="m 0,0 v -3.5 h -13.773 v 22.9 h 3.86 V 0 Z"
             inkscape:connector-curvature="0" /></g><path
           id="path78"
           style="fill:#000000;fill-opacity:1;fill-rule:nonzero;stroke:none"
           d="m 782.828,914.505 h 3.86 v -22.9 h -3.86 z"
           inkscape:connector-curvature="0" /><g
           transform="translate(825.1238,891.6044)"
           id="g80"><path
             id="path82"
             style="fill:#000000;fill-opacity:1;fill-rule:nonzero;stroke:none"
             d="M 0,0 -12.203,16.423 V 0 h -3.86 v 22.9 h 3.794 L 0,6.445 V 22.9 H 3.795 V 0 Z"
             inkscape:connector-curvature="0" /></g><g
           transform="translate(859.073,901.7133)"
           id="g84"><path
             id="path86"
             style="fill:#000000;fill-opacity:1;fill-rule:nonzero;stroke:none"
             d="m 0,0 -3.893,-4.286 v -5.823 h -3.86 v 22.901 h 3.86 V 0.949 L 7.034,12.792 h 4.548 L 2.716,3.01 12.17,-10.109 H 7.525 Z"
             inkscape:connector-curvature="0" /></g><g
           transform="translate(895.0193,911.037)"
           id="g88"><path
             id="path90"
             style="fill:#000000;fill-opacity:1;fill-rule:nonzero;stroke:none"
             d="M 0,0 V -6.183 H 11.188 V -9.651 H 0 v -6.314 h 12.89 v -3.468 H -3.86 V 3.468 H 12.497 V 0 Z"
             inkscape:connector-curvature="0" /></g><g
           transform="translate(932.8308,895.0722)"
           id="g92"><path
             id="path94"
             style="fill:#000000;fill-opacity:1;fill-rule:nonzero;stroke:none"
             d="m 0,0 h 5.627 c 4.449,0 7.852,3.304 7.852,7.95 0,4.678 -3.5,8.015 -8.016,8.015 H 0 Z m 5.529,19.433 c 6.869,0 11.842,-4.809 11.842,-11.451 0,-6.608 -5.005,-11.45 -11.94,-11.45 H -3.86 v 22.901 z"
             inkscape:connector-curvature="0" /></g><g
           transform="translate(1014.5081,902.8583)"
           id="g96"><path
             id="path98"
             style="fill:#000000;fill-opacity:1;fill-rule:nonzero;stroke:none"
             d="m 0,0 v -8.44 c -2.323,-1.767 -5.758,-2.978 -8.899,-2.978 -6.772,0 -12.039,5.071 -12.039,11.614 0,6.543 5.333,11.549 12.269,11.549 3.272,0 6.543,-1.244 8.8,-3.206 L -2.062,5.692 c -1.765,1.636 -4.219,2.618 -6.607,2.618 -4.679,0 -8.343,-3.566 -8.343,-8.114 0,-4.58 3.696,-8.146 8.375,-8.146 1.701,0 3.632,0.589 5.267,1.571 V 0 Z"
             inkscape:connector-curvature="0" /></g><g
           transform="translate(1040.1819,911.037)"
           id="g100"><path
             id="path102"
             style="fill:#000000;fill-opacity:1;fill-rule:nonzero;stroke:none"
             d="M 0,0 V -6.183 H 11.188 V -9.651 H 0 v -6.314 h 12.89 v -3.468 H -3.86 V 3.468 H 12.497 V 0 Z"
             inkscape:connector-curvature="0" /></g><g
           transform="translate(1076.1614,903.0546)"
           id="g104"><path
             id="path106"
             style="fill:#000000;fill-opacity:1;fill-rule:nonzero;stroke:none"
             d="m 0,0 c 0,-4.547 3.762,-8.146 8.244,-8.146 4.483,0 8.147,3.599 8.147,8.146 0,4.547 -3.664,8.081 -8.147,8.081 C 3.729,8.081 0,4.547 0,0 m 20.349,0 c 0,-6.543 -5.3,-11.614 -12.138,-11.614 -6.837,0 -12.137,5.071 -12.137,11.614 0,6.576 5.3,11.548 12.137,11.548 6.838,0 12.138,-5.005 12.138,-11.548"
             inkscape:connector-curvature="0" /></g><g
           transform="translate(1120.842,895.0722)"
           id="g108"><path
             id="path110"
             style="fill:#000000;fill-opacity:1;fill-rule:nonzero;stroke:none"
             d="m 0,0 h 5.627 c 4.449,0 7.852,3.304 7.852,7.95 0,4.678 -3.501,8.015 -8.015,8.015 H 0 Z m 5.528,19.433 c 6.871,0 11.844,-4.809 11.844,-11.451 0,-6.608 -5.006,-11.45 -11.941,-11.45 H -3.86 v 22.901 z"
             inkscape:connector-curvature="0" /></g><g
           transform="translate(1162.5461,911.037)"
           id="g112"><path
             id="path114"
             style="fill:#000000;fill-opacity:1;fill-rule:nonzero;stroke:none"
             d="M 0,0 V -6.183 H 11.188 V -9.651 H 0 v -6.314 h 12.89 v -3.468 H -3.86 V 3.468 H 12.497 V 0 Z"
             inkscape:connector-curvature="0" /></g><g
           transform="translate(1212.0364,912.3129)"
           id="g116"><path
             id="path118"
             style="fill:#000000;fill-opacity:1;fill-rule:nonzero;stroke:none"
             d="m 0,0 -1.603,-3.402 c -2.486,1.505 -4.972,2.126 -6.706,2.126 -2.257,0 -3.73,-0.85 -3.73,-2.388 0,-5.005 12.367,-2.323 12.334,-10.567 0,-4.089 -3.599,-6.608 -8.637,-6.608 -3.598,0 -7.001,1.472 -9.356,3.631 l 1.669,3.337 c 2.355,-2.159 5.299,-3.337 7.753,-3.337 2.682,0 4.286,1.014 4.286,2.781 0,5.103 -12.367,2.257 -12.367,10.403 0,3.926 3.37,6.379 8.342,6.379 C -5.037,2.355 -2.126,1.407 0,0"
             inkscape:connector-curvature="0" /></g><g
           transform="translate(1242.5852,891.6044)"
           id="g120"><path
             id="path122"
             style="fill:#000000;fill-opacity:1;fill-rule:nonzero;stroke:none"
             d="M 0,0 H -3.827 V 7.492 L -12.365,22.9 h 3.892 L -1.93,11.745 4.482,22.9 H 8.408 L 0,7.623 Z"
             inkscape:connector-curvature="0" /></g></g></g></g></svg>